<?xml version="1.0" encoding="UTF-8"?>
<svg enable-background="new 0 0 64 64" version="1.1" viewBox="0 0 64 64" xml:space="preserve" xmlns="http://www.w3.org/2000/svg">
	<path d="m63.6 32.4c0.6-0.6 0.5-1.7 0-2.3l-3.1-3.1-13.8-13.4c-0.6-0.6-1.5-0.6-2.2 0-0.6 0.6-0.8 1.7 0 2.3l14.5 14.2c0.6 0.6 0.6 1.7 0 2.3l-14.8 14.7c-0.6 0.6-0.6 1.7 0 2.3s1.7 0.5 2.2 0l13.7-13.6 0.1-0.1 3.4-3.3z" fill="#3999C6"/>
	<path d="m0.4 32.4c-0.6-0.6-0.5-1.7 0-2.3l3.1-3.1 13.8-13.4c0.6-0.6 1.5-0.6 2.2 0 0.6 0.6 0.8 1.7 0 2.3l-14.2 14.2c-0.6 0.6-0.6 1.7 0 2.3l14.5 14.7c0.6 0.6 0.6 1.7 0 2.3s-1.7 0.5-2.2 0l-14-13.4-0.1-0.1-3.1-3.5z" fill="#3999C6"/>
	<polygon points="47.6 2.5 28.1 2.5 17.6 32.1 30.4 32.2 20.4 61.5 48 22.4 34.6 22.4" fill="#FCD116"/>
	<polygon points="34.6 22.4 47.6 2.5 37.4 2.5 26.6 27.1 39.4 27.2 20.4 61.5 48 22.4" enable-background="new" fill="#FF8C00" opacity=".3"/>
</svg>
